<?xml version="1.0" encoding="UTF-8" standalone="no"?>
<svg
   width="211"
   height="60"
   viewBox="0 0 158.25 45"
   version="1.1"
   id="svg46"
   sodipodi:docname="rectangle-small.svg"
   inkscape:version="1.2.2 (b0a84865, 2022-12-01)"
   xmlns:inkscape="http://www.inkscape.org/namespaces/inkscape"
   xmlns:sodipodi="http://sodipodi.sourceforge.net/DTD/sodipodi-0.dtd"
   xmlns="http://www.w3.org/2000/svg"
   xmlns:svg="http://www.w3.org/2000/svg">
  <defs
     id="defs7" />
  <sodipodi:namedview
     id="namedview5"
     pagecolor="#ffffff"
     bordercolor="#000000"
     borderopacity="0.25"
     inkscape:showpageshadow="2"
     inkscape:pageopacity="0.0"
     inkscape:pagecheckerboard="0"
     inkscape:deskcolor="#d1d1d1"
     inkscape:document-units="px"
     showgrid="false"
     inkscape:zoom="1.18"
     inkscape:cx="148.30508"
     inkscape:cy="115.67797"
     inkscape:window-width="1440"
     inkscape:window-height="669"
     inkscape:window-x="0"
     inkscape:window-y="38"
     inkscape:window-maximized="0"
     inkscape:current-layer="svg46" />
  <path
     style="fill:#ffffff;stroke-width:0.350288"
     d="M 22.661463,37.035097 C 19.328424,36.832257 17.009603,36.248168 16.05694,35.371478 15.428037,34.792729 15.288858,31.901569 15.425737,22.25972 15.620877,8.5141008 15.380797,9.2576878 19.867892,8.5025408 c 1.91409,-0.322127 5.673531,-0.344235 58.537929,-0.344235 61.919959,0 59.422789,-0.04698 61.852099,1.163583 1.23591,0.615875 1.26798,0.9525362 1.26798,13.3117362 0,14.015259 0.19408,13.335182 -4.03056,14.122882 -1.88306,0.351101 -4.29188,0.367771 -57.19592,0.395832 -30.376532,0.01613 -56.31362,-0.03664 -57.637957,-0.117242 z"
     id="path350" />
  <path
     style="fill:#27bdf5cc;fill-opacity:1;fill-rule:nonzero;stroke:none;stroke-width:0.53591"
     d="M 26.004097,39.992457 H 131.41116 c 12.7269,0 19.11877,-1.933876 19.11877,-5.762302 V 11.532562 c 0,-3.8284272 -6.39187,-5.7623022 -19.11877,-5.7623022 H 26.004097 c -12.666283,0 -19.1187684,1.915369 -19.1187684,5.7623022 v 22.697593 c 0,3.846932 6.4524854,5.762302 19.1187684,5.762302 z m 0.181867,-2.993345 c -6.088761,0 -9.498762,-0.985443 -9.498762,-2.91816 V 11.681766 c 0,-1.9327192 3.410001,-2.9181632 9.498762,-2.9181632 H 131.22929 c 6.02814,0 9.49876,0.985444 9.49876,2.9181632 v 22.399186 c 0,1.932717 -3.47062,2.91816 -9.49876,2.91816 z m 0,0"
     id="path43" />
</svg>
